<svg version="1.1" xmlns="http://www.w3.org/2000/svg" viewBox="0 0 2860.608766739221 1579.6807702179328" width="2860.608766739221" height="1579.6807702179328">
  <!-- svg-source:excalidraw -->
  
  <defs>
    <style class="style-fonts">
      @font-face {
        font-family: "Virgil";
        src: url("https://excalidraw.com/Virgil.woff2");
      }
      @font-face {
        font-family: "Cascadia";
        src: url("https://excalidraw.com/Cascadia.woff2");
      }
    </style>
    
  </defs>
  <rect x="0" y="0" width="2860.608766739221" height="1579.6807702179328" fill="#ffffff"></rect><g stroke-linecap="round" transform="translate(447.33333333333326 964.7869247375253) rotate(0 87.5 85)"><path d="M110 21.5 M110 21.5 C127.76 37.92, 143.46 53.9, 153 64.5 M110 21.5 C122.84 33.35, 136.89 45.99, 153 64.5 M153 64.5 C177 84.28, 174.89 87.01, 153 107.5 M153 64.5 C174.56 83.72, 174.63 87.08, 153 107.5 M153 107.5 C137.39 124.2, 118.1 138.14, 110 148.5 M153 107.5 C138.99 120.61, 124.99 136.15, 110 148.5 M110 148.5 C86.7 171.11, 87.53 169.78, 66 148.5 M110 148.5 C87.14 168.75, 89.17 169.41, 66 148.5 M66 148.5 C55.97 140.17, 47.66 128.73, 22 107.5 M66 148.5 C52.86 136.14, 39.28 123.54, 22 107.5 M22 107.5 C-1.22 87.85, 1.1 84.95, 22 64.5 M22 107.5 C0.37 84.18, 1.64 86.41, 22 64.5 M22 64.5 C37.16 47.87, 55.66 31.79, 66 21.5 M22 64.5 C39.77 47.46, 57.26 31.06, 66 21.5 M66 21.5 C87.05 -1.74, 87.29 -1.38, 110 21.5 M66 21.5 C86.25 0.99, 86.39 0.06, 110 21.5" stroke="#1e1e1e" stroke-width="4" fill="none"></path></g><g transform="translate(499.99336751302076 1012.2869247375253) rotate(0 35.0899658203125 37.5)"><text x="35.0899658203125" y="0" font-family="Virgil, Segoe UI Emoji" font-size="20px" fill="#1e1e1e" text-anchor="middle" style="white-space: pre;" direction="ltr" dominant-baseline="text-before-edge">Train </text><text x="35.0899658203125" y="25" font-family="Virgil, Segoe UI Emoji" font-size="20px" fill="#1e1e1e" text-anchor="middle" style="white-space: pre;" direction="ltr" dominant-baseline="text-before-edge">Booking</text><text x="35.0899658203125" y="50" font-family="Virgil, Segoe UI Emoji" font-size="20px" fill="#1e1e1e" text-anchor="middle" style="white-space: pre;" direction="ltr" dominant-baseline="text-before-edge">A</text></g><g stroke-linecap="round" transform="translate(754.8333333333333 971.7869247375253) rotate(0 88.5 85)"><path d="M111.25 21.5 M111.25 21.5 C127.1 37.94, 141.42 54.84, 154.75 64.5 M111.25 21.5 C121.68 32.3, 131.47 41.38, 154.75 64.5 M154.75 64.5 C175.84 85.05, 175.62 85.2, 154.75 107.5 M154.75 64.5 C176.91 86.57, 174.93 85.36, 154.75 107.5 M154.75 107.5 C138.94 121.58, 121.94 137.23, 111.25 148.5 M154.75 107.5 C139.53 122.05, 124.59 135.67, 111.25 148.5 M111.25 148.5 C88.02 169.22, 89.91 169.46, 66.75 148.5 M111.25 148.5 C91.25 168.44, 89.96 171.88, 66.75 148.5 M66.75 148.5 C48.81 133.57, 31.88 116.67, 22.25 107.5 M66.75 148.5 C53.89 136.23, 41.45 123.65, 22.25 107.5 M22.25 107.5 C-0.25 87.51, -0.76 87.54, 22.25 64.5 M22.25 107.5 C-0.17 88.13, 1.44 84.64, 22.25 64.5 M22.25 64.5 C38.03 52.36, 52.32 37.5, 66.75 21.5 M22.25 64.5 C31.72 55.22, 42.21 45.86, 66.75 21.5 M66.75 21.5 C88.96 -1.48, 90.72 -1.87, 111.25 21.5 M66.75 21.5 C89.94 -0.05, 91.02 1.22, 111.25 21.5" stroke="#1e1e1e" stroke-width="4" fill="none"></path></g><g transform="translate(805.7333730061848 1019.2869247375253) rotate(0 37.84996032714844 37.5)"><text x="37.84996032714844" y="0" font-family="Virgil, Segoe UI Emoji" font-size="20px" fill="#1e1e1e" text-anchor="middle" style="white-space: pre;" direction="ltr" dominant-baseline="text-before-edge">Train </text><text x="37.84996032714844" y="25" font-family="Virgil, Segoe UI Emoji" font-size="20px" fill="#1e1e1e" text-anchor="middle" style="white-space: pre;" direction="ltr" dominant-baseline="text-before-edge">Filtering</text><text x="37.84996032714844" y="50" font-family="Virgil, Segoe UI Emoji" font-size="20px" fill="#1e1e1e" text-anchor="middle" style="white-space: pre;" direction="ltr" dominant-baseline="text-before-edge">B</text></g><g stroke-linecap="round" transform="translate(10 952.7869247375253) rotate(0 80 82)"><path d="M32 0 M32 0 C52.7 0.67, 73.42 0.62, 128 0 M32 0 C68.07 -1.14, 105.92 -0.79, 128 0 M128 0 C150.92 1.9, 160.12 11.67, 160 32 M128 0 C147.71 0.72, 161.04 11, 160 32 M160 32 C162.87 64.17, 158.97 96.99, 160 132 M160 32 C159.17 67.73, 158.79 102.98, 160 132 M160 132 C159.28 155.18, 147.36 165.48, 128 164 M160 132 C160.07 155.58, 149.43 164.01, 128 164 M128 164 C91.25 165.1, 52.15 164.3, 32 164 M128 164 C90.64 163.49, 50.52 163.51, 32 164 M32 164 C10.53 162.74, -0.37 155.28, 0 132 M32 164 C8.8 164.75, -1.42 151.71, 0 132 M0 132 C0.25 109.78, 2.28 92.29, 0 32 M0 132 C1.51 104.63, 1.65 78.12, 0 32 M0 32 C-1.27 11.36, 10 1.71, 32 0 M0 32 C-2.25 11.97, 11.37 1.73, 32 0" stroke="#1e1e1e" stroke-width="4" fill="none"></path></g><g transform="translate(62.95002746582031 1022.2869247375253) rotate(0 27.049972534179688 12.5)"><text x="27.049972534179688" y="0" font-family="Virgil, Segoe UI Emoji" font-size="20px" fill="#1e1e1e" text-anchor="middle" style="white-space: pre;" direction="ltr" dominant-baseline="text-before-edge">Client</text></g><g stroke-linecap="round"><g transform="translate(174.9999999999998 1017.3391067062099) rotate(0 149.67844301074967 -1.6094351998617071)"><path d="M-0.54 -0.09 C49.19 -0.46, 249.62 -2.16, 299.53 -2.57 M1.38 -1.18 C50.87 -1.87, 249.25 -3.79, 298.67 -4.35" stroke="#1e1e1e" stroke-width="4" fill="none"></path></g><g transform="translate(174.9999999999998 1017.3391067062099) rotate(0 149.67844301074967 -1.6094351998617071)"><path d="M270.44 6.49 C282.83 1.4, 293.98 -2.32, 300.5 -2.37 M269.74 6.43 C281.32 2.26, 291.3 -2.1, 298.66 -3.97" stroke="#1e1e1e" stroke-width="4" fill="none"></path></g><g transform="translate(174.9999999999998 1017.3391067062099) rotate(0 149.67844301074967 -1.6094351998617071)"><path d="M270.22 -14.03 C282.65 -10.99, 293.88 -6.57, 300.5 -2.37 M269.52 -14.09 C281.15 -10.49, 291.21 -7.08, 298.66 -3.97" stroke="#1e1e1e" stroke-width="4" fill="none"></path></g></g><mask></mask><g stroke-linecap="round"><g transform="translate(488.18698896993385 1090.867489972938) rotate(0 0 0)"><path d="M-0.34 0.28 C-0.6 0.26, -0.73 -0.61, -0.79 -0.83 M1.69 -0.62 C1.74 -0.45, 2.09 0.22, 1.51 0.27" stroke="#1e1e1e" stroke-width="4" fill="none"></path></g><g transform="translate(488.18698896993385 1090.867489972938) rotate(0 0 0)"><path d="M1.51 0.27 C1.51 0.27, 1.51 0.27, 1.51 0.27 M1.51 0.27 C1.51 0.27, 1.51 0.27, 1.51 0.27" stroke="#1e1e1e" stroke-width="4" fill="none"></path></g><g transform="translate(488.18698896993385 1090.867489972938) rotate(0 0 0)"><path d="M1.51 0.27 C1.51 0.27, 1.51 0.27, 1.51 0.27 M1.51 0.27 C1.51 0.27, 1.51 0.27, 1.51 0.27" stroke="#1e1e1e" stroke-width="4" fill="none"></path></g></g><mask></mask><g stroke-linecap="round"><g transform="translate(466.649326012953 1084.7723079727489) rotate(0 -146.65799633980998 -4.489598882447211)"><path d="M-0.15 -0.86 C-48.78 -2.71, -243.66 -8.9, -292.5 -10.12 M-1.68 1.31 C-50.35 0.08, -244.31 -7.28, -293.01 -9.18" stroke="#1e1e1e" stroke-width="4" fill="none"></path></g><g transform="translate(466.649326012953 1084.7723079727489) rotate(0 -146.65799633980998 -4.489598882447211)"><path d="M-265.88 -16.99 C-273.25 -15.94, -276.97 -13.83, -295.01 -10.45 M-264.72 -18.84 C-271.53 -16.33, -277.67 -14.01, -292.71 -10.14" stroke="#1e1e1e" stroke-width="4" fill="none"></path></g><g transform="translate(466.649326012953 1084.7723079727489) rotate(0 -146.65799633980998 -4.489598882447211)"><path d="M-266.66 3.52 C-274.01 -0.44, -277.54 -3.34, -295.01 -10.45 M-265.51 1.67 C-272.19 -0.63, -278.15 -3.09, -292.71 -10.14" stroke="#1e1e1e" stroke-width="4" fill="none"></path></g></g><mask></mask><g stroke-linecap="round"><g transform="translate(581.1025749157014 1007.1350232320946) rotate(0 106.31349176000066 -2.954966540114043)"><path d="M0.27 -0.12 C35.51 -0.98, 176.58 -5.17, 211.91 -5.98 M-1.05 -1.23 C34.54 -1.82, 178.86 -3.54, 214.24 -4.48" stroke="#1e1e1e" stroke-width="4" fill="none"></path></g><g transform="translate(581.1025749157014 1007.1350232320946) rotate(0 106.31349176000066 -2.954966540114043)"><path d="M186.05 5.1 C195.69 1.93, 206.82 -0.33, 212.36 -4.99 M185.53 6.7 C192.67 3.52, 198.61 2.12, 214.38 -4.52" stroke="#1e1e1e" stroke-width="4" fill="none"></path></g><g transform="translate(581.1025749157014 1007.1350232320946) rotate(0 106.31349176000066 -2.954966540114043)"><path d="M185.68 -15.42 C195.3 -11.64, 206.56 -6.95, 212.36 -4.99 M185.15 -13.82 C192.24 -12.84, 198.26 -10.08, 214.38 -4.52" stroke="#1e1e1e" stroke-width="4" fill="none"></path></g></g><mask></mask><g stroke-linecap="round"><g transform="translate(773.750100530933 1030.1965082551587) rotate(0 -82.4447176323323 1.4389581192787944)"><path d="M0.64 -0.45 C-26.66 0.18, -137.12 2.72, -164.89 3.36 M-0.49 -1.74 C-27.85 -1.42, -138.64 0.99, -165.83 1.49" stroke="#1e1e1e" stroke-width="4" fill="none"></path></g><g transform="translate(773.750100530933 1030.1965082551587) rotate(0 -82.4447176323323 1.4389581192787944)"><path d="M-138.61 -9.34 C-142.95 -8.76, -148.8 -4.26, -167.76 1.02 M-138.05 -8.84 C-146.78 -7.13, -155.37 -3.22, -165.66 2.24" stroke="#1e1e1e" stroke-width="4" fill="none"></path></g><g transform="translate(773.750100530933 1030.1965082551587) rotate(0 -82.4447176323323 1.4389581192787944)"><path d="M-138.2 11.18 C-142.54 7.47, -148.48 7.68, -167.76 1.02 M-137.64 11.67 C-146.57 7.18, -155.28 4.88, -165.66 2.24" stroke="#1e1e1e" stroke-width="4" fill="none"></path></g></g><mask></mask><g transform="translate(293.74999999999966 992.1202580708588) rotate(0 26.379974365234375 12.5)"><text x="0" y="0" font-family="Virgil, Segoe UI Emoji" font-size="20px" fill="#1e1e1e" text-anchor="start" style="white-space: pre;" direction="ltr" dominant-baseline="text-before-edge">Input</text></g><g transform="translate(290.46003723144497 1049.6202580708587) rotate(0 39.849952697753906 12.5)"><text x="0" y="0" font-family="Virgil, Segoe UI Emoji" font-size="20px" fill="#1e1e1e" text-anchor="start" style="white-space: pre;" direction="ltr" dominant-baseline="text-before-edge"> Output</text></g><g transform="translate(648.777656270558 981.2870549238319) rotate(0 43.549957275390625 12.5)"><text x="0" y="0" font-family="Virgil, Segoe UI Emoji" font-size="20px" fill="#1e1e1e" text-anchor="start" style="white-space: pre;" direction="ltr" dominant-baseline="text-before-edge">1.2 Filter</text></g><g transform="translate(649.8332812588104 1009.4262736180305) rotate(0 48.55994415283203 12.5)"><text x="0" y="0" font-family="Virgil, Segoe UI Emoji" font-size="20px" fill="#1e1e1e" text-anchor="start" style="white-space: pre;" direction="ltr" dominant-baseline="text-before-edge">1.3 Trains</text></g><g stroke-linecap="round" transform="translate(443.0120002318623 1095.6408019063017) rotate(0 45.5 42.5)"><path d="M51.51 1.23 C59.22 1.54, 67.63 4.72, 73.86 9.32 C80.08 13.93, 86.31 21.53, 88.87 28.86 C91.43 36.2, 91.23 45.89, 89.21 53.35 C87.18 60.8, 82.63 68.33, 76.7 73.58 C70.78 78.83, 61.98 83.49, 53.63 84.85 C45.28 86.2, 34.29 84.89, 26.6 81.72 C18.91 78.56, 11.9 72.4, 7.5 65.85 C3.09 59.3, 0.13 50.17, 0.15 42.42 C0.17 34.67, 3.21 25.8, 7.62 19.35 C12.03 12.9, 18.21 6.71, 26.62 3.74 C35.04 0.77, 51.8 1.31, 58.11 1.54 C64.42 1.77, 64.87 4.57, 64.47 5.12 M47.14 -1.37 C55 -1.71, 64.63 2.84, 71.47 7.7 C78.3 12.55, 85.3 20.34, 88.17 27.74 C91.04 35.13, 90.46 44.42, 88.69 52.08 C86.92 59.74, 83.05 68.47, 77.54 73.69 C72.03 78.92, 63.69 81.87, 55.63 83.44 C47.56 85.01, 37 85.77, 29.14 83.1 C21.27 80.44, 13.19 73.48, 8.43 67.45 C3.67 61.42, 1.08 54.64, 0.57 46.91 C0.06 39.17, 1.37 28, 5.37 21.04 C9.38 14.09, 17.4 8.71, 24.61 5.18 C31.83 1.65, 44.88 0.45, 48.67 -0.11 C52.45 -0.68, 47.4 1.17, 47.32 1.81" stroke="#1e1e1e" stroke-width="4" fill="none"></path></g><g transform="translate(461.82866243982755 1125.5887637058734) rotate(0 26.509979248046875 12.5)"><text x="26.509979248046875" y="0" font-family="Virgil, Segoe UI Emoji" font-size="20px" fill="#1e1e1e" text-anchor="middle" style="white-space: pre;" direction="ltr" dominant-baseline="text-before-edge">SOAP</text></g><g stroke-linecap="round" transform="translate(844.2885629374465 1095.9740831651125) rotate(0 49 42.5)"><path d="M57.51 0.24 C65.87 0.93, 75.67 6.89, 82.04 12.2 C88.42 17.51, 93.44 24.72, 95.77 32.1 C98.11 39.48, 98.67 49.3, 96.04 56.49 C93.41 63.68, 87.04 70.55, 79.99 75.26 C72.94 79.98, 62.74 83.89, 53.75 84.78 C44.75 85.67, 33.84 84.21, 26 80.61 C18.17 77.01, 11.12 69.94, 6.74 63.19 C2.36 56.44, -0.78 47.78, -0.28 40.13 C0.21 32.47, 4.48 23.44, 9.7 17.28 C14.92 11.13, 22.5 5.72, 31.04 3.2 C39.59 0.68, 55.39 2.06, 60.99 2.15 C66.6 2.24, 64.95 3.11, 64.69 3.73 M43.76 -0.64 C51.85 -2.32, 61.85 -0.39, 69.63 3.1 C77.41 6.59, 85.62 13.65, 90.42 20.3 C95.22 26.96, 98.56 35.47, 98.42 43.02 C98.27 50.58, 94.59 58.96, 89.56 65.64 C84.53 72.32, 76.24 80.19, 68.25 83.08 C60.25 85.98, 50.4 84.66, 41.59 83.01 C32.79 81.36, 22.08 78.08, 15.4 73.18 C8.72 68.27, 3.84 60.9, 1.52 53.6 C-0.81 46.29, -1.31 36.55, 1.46 29.34 C4.22 22.14, 10.86 15.43, 18.11 10.35 C25.36 5.27, 40.52 0.42, 44.95 -1.14 C49.37 -2.69, 44.76 0.13, 44.66 1.02" stroke="#1e1e1e" stroke-width="4" fill="none"></path></g><g transform="translate(865.5003617872353 1125.9220449646841) rotate(0 27.639968872070312 12.5)"><text x="27.639968872070312" y="0" font-family="Virgil, Segoe UI Emoji" font-size="20px" fill="#1e1e1e" text-anchor="middle" style="white-space: pre;" direction="ltr" dominant-baseline="text-before-edge">REST</text></g><g stroke-linecap="round" transform="translate(991.9841269841265 793.3630067703496) rotate(0 89.44444444444434 83.88888888888889)"><path d="M112.5 21 M112.5 21 C129.54 35.27, 144.27 50.04, 156.39 63 M112.5 21 C126.82 35.14, 140.87 48.24, 156.39 63 M156.39 63 C179.92 83.26, 180.5 83.04, 156.39 105 M156.39 63 C181.04 83.58, 178.7 83.22, 156.39 105 M156.39 105 C140.28 121.35, 123.09 134.28, 112.5 146.78 M156.39 105 C140.78 121.61, 123.62 136.83, 112.5 146.78 M112.5 146.78 C91.03 169.12, 90.23 168.23, 67.5 146.78 M112.5 146.78 C90.82 166.86, 89.73 165.92, 67.5 146.78 M67.5 146.78 C57.69 137.98, 47.13 128.46, 22.5 105 M67.5 146.78 C52.76 131.56, 36.53 117.04, 22.5 105 M22.5 105 C1.4 85.64, 1.39 83.04, 22.5 63 M22.5 105 C-0.73 82.94, 1.54 83.51, 22.5 63 M22.5 63 C30.23 53.8, 42.05 47.97, 67.5 21 M22.5 63 C32.04 53.32, 42.87 44.16, 67.5 21 M67.5 21 C88.96 -1.3, 88.29 0.75, 112.5 21 M67.5 21 C89.86 0.12, 89.97 -2.18, 112.5 21" stroke="#1e1e1e" stroke-width="4" fill="none"></path></g><g transform="translate(1066.136357140919 864.807451214794) rotate(0 15.069992065429688 12.5)"><text x="15.069992065429688" y="0" font-family="Virgil, Segoe UI Emoji" font-size="20px" fill="#1e1e1e" text-anchor="middle" style="white-space: pre;" direction="ltr" dominant-baseline="text-before-edge">DB</text></g><g stroke-linecap="round"><g transform="translate(539.7619047619042 961.1407845481274) rotate(0 232.22222222222223 -59.44444444444446)"><path d="M0.65 0.4 C78.14 -19.42, 388.08 -98.15, 465.47 -117.9 M-0.47 -0.44 C76.9 -20.06, 387.57 -99.57, 465.05 -119.5" stroke="#1e1e1e" stroke-width="4" fill="none"></path></g><g transform="translate(539.7619047619042 961.1407845481274) rotate(0 232.22222222222223 -59.44444444444446)"><path d="M440.96 -100.86 C450.29 -107.67, 458.49 -113.72, 464.25 -117.84 M439.43 -102.83 C445.22 -107.58, 450.92 -110.08, 465.14 -119.65" stroke="#1e1e1e" stroke-width="4" fill="none"></path></g><g transform="translate(539.7619047619042 961.1407845481274) rotate(0 232.22222222222223 -59.44444444444446)"><path d="M435.86 -120.73 C447.11 -120.77, 457.05 -120, 464.25 -117.84 M434.33 -122.71 C441.51 -122.77, 448.43 -120.55, 465.14 -119.65" stroke="#1e1e1e" stroke-width="4" fill="none"></path></g></g><mask></mask><g transform="translate(726.4285714285709 902.2518956592386) rotate(345.54604597709897 67.7699203491211 12.5)"><text x="0" y="0" font-family="Virgil, Segoe UI Emoji" font-size="20px" fill="#1e1e1e" text-anchor="start" style="white-space: pre;" direction="ltr" dominant-baseline="text-before-edge">Auth Request</text></g><g stroke-linecap="round"><g transform="translate(983.0952380952376 881.1407845481274) rotate(0 -213.33333333333337 48.888888888888914)"><path d="M1.13 -0.24 C-69.99 16.23, -354.41 81.5, -425.66 97.77 M0.26 -1.41 C-71.02 15.36, -354.88 82.66, -426.08 99.3" stroke="#1e1e1e" stroke-width="4" fill="none"></path></g><g transform="translate(983.0952380952376 881.1407845481274) rotate(0 -213.33333333333337 48.888888888888914)"><path d="M-401.39 84.53 C-410.88 89.99, -421.32 96.69, -425 97.91 M-400.47 83.27 C-406.19 85.84, -410.67 88.96, -426.52 99.33" stroke="#1e1e1e" stroke-width="4" fill="none"></path></g><g transform="translate(983.0952380952376 881.1407845481274) rotate(0 -213.33333333333337 48.888888888888914)"><path d="M-396.69 104.5 C-407.82 102.27, -420.08 101.22, -425 97.91 M-395.76 103.24 C-402.66 101.56, -408.14 100.46, -426.52 99.33" stroke="#1e1e1e" stroke-width="4" fill="none"></path></g></g><mask></mask><g stroke-linecap="round"><g transform="translate(918.6507936507932 1042.2518956592385) rotate(0 61.66666666666657 -52.22222222222223)"><path d="M0.71 -0.06 C21.36 -17.28, 103.63 -85.93, 124.01 -103.33 M-0.38 -1.14 C20.17 -18.66, 103.01 -87.86, 123.42 -104.87" stroke="#1e1e1e" stroke-width="4" fill="none"></path></g><g transform="translate(918.6507936507932 1042.2518956592385) rotate(0 61.66666666666657 -52.22222222222223)"><path d="M108.26 -77.8 C114.82 -87.49, 117.51 -93.99, 123.67 -104 M108.53 -78.23 C113.52 -85.76, 116.94 -92.76, 123.04 -104.16" stroke="#1e1e1e" stroke-width="4" fill="none"></path></g><g transform="translate(918.6507936507932 1042.2518956592385) rotate(0 61.66666666666657 -52.22222222222223)"><path d="M95.1 -93.55 C105.7 -98.49, 112.42 -100.17, 123.67 -104 M95.38 -93.98 C103.93 -97.12, 110.98 -99.76, 123.04 -104.16" stroke="#1e1e1e" stroke-width="4" fill="none"></path></g></g><mask></mask><g stroke-linecap="round"><g transform="translate(1068.650793650793 958.9185623259052) rotate(0 -64.4444444444444 52.77777777777777)"><path d="M-0.09 0.1 C-21.46 17.76, -106.71 89.11, -128.28 106.58 M-1.59 -0.9 C-23.06 16.39, -107.41 87.2, -128.92 105" stroke="#1e1e1e" stroke-width="4" fill="none"></path></g><g transform="translate(1068.650793650793 958.9185623259052) rotate(0 -64.4444444444444 52.77777777777777)"><path d="M-113.67 80.07 C-116.43 85.6, -123.66 94.18, -129.3 103.3 M-114.01 78.73 C-120.02 86.78, -124.11 97.06, -129.35 105.51" stroke="#1e1e1e" stroke-width="4" fill="none"></path></g><g transform="translate(1068.650793650793 958.9185623259052) rotate(0 -64.4444444444444 52.77777777777777)"><path d="M-100.53 95.83 C-107.24 96.72, -118.33 100.65, -129.3 103.3 M-100.87 94.49 C-111.12 97.21, -119.56 102.26, -129.35 105.51" stroke="#1e1e1e" stroke-width="4" fill="none"></path></g></g><mask></mask><g transform="translate(961.9841269841266 991.1407845481275) rotate(319.34005405661276 26.789970397949162 12.5)"><text x="0" y="0" font-family="Virgil, Segoe UI Emoji" font-size="20px" fill="#1e1e1e" text-anchor="start" style="white-space: pre;" direction="ltr" dominant-baseline="text-before-edge">Data</text></g><g stroke-linecap="round" transform="translate(1140.608766739221 10) rotate(0 855 413.3333333333333)"><path d="M32 0 M32 0 C676.71 0.07, 1321.12 0.03, 1678 0 M1678 0 C1699.65 1.8, 1709.64 12.16, 1710 32 M1710 32 C1708.32 186.28, 1708.21 339.65, 1710 794.67 M1710 794.67 C1708.47 815, 1698.83 824.85, 1678 826.67 M1678 826.67 C1200.22 825.87, 722.55 825.34, 32 826.67 M32 826.67 C11.1 825.34, -0.21 814.44, 0 794.67 M0 794.67 C-2.17 556.66, -1.92 318.41, 0 32 M0 32 C1.59 12.54, 12.13 0.75, 32 0" stroke="#1e1e1e" stroke-width="2.5" fill="none" stroke-dasharray="8 10"></path></g><g stroke-linecap="round"><g transform="translate(584.3121299327163 1093.689297226268) rotate(0 102.68853081589259 3.086635033399375)"><path d="M0.78 -0.72 C34.82 0.34, 171.3 5.19, 205.27 6.25 M-0.27 1.52 C33.52 2.8, 169.7 6.97, 204.26 7.83" stroke="#1e1e1e" stroke-width="4" fill="none"></path></g><g transform="translate(584.3121299327163 1093.689297226268) rotate(0 102.68853081589259 3.086635033399375)"><path d="M174.59 17.1 C186.91 12.17, 196.86 9.33, 205.98 6.13 M176.65 17.23 C182.69 15.19, 187.58 12.65, 204.8 7.04" stroke="#1e1e1e" stroke-width="4" fill="none"></path></g><g transform="translate(584.3121299327163 1093.689297226268) rotate(0 102.68853081589259 3.086635033399375)"><path d="M175.17 -3.41 C187.25 -0.42, 196.98 4.65, 205.98 6.13 M177.23 -3.28 C183.17 -0.97, 187.93 0.84, 204.8 7.04" stroke="#1e1e1e" stroke-width="4" fill="none"></path></g></g><mask></mask><g stroke-linecap="round"><g transform="translate(813.9954123080533 1123.551203748234) rotate(0 -128.35882001070865 -5.187535755839406)"><path d="M-0.11 0.08 C-43.16 -1.62, -214.67 -9.35, -257.49 -10.92 M-1.63 -0.93 C-44.36 -2.41, -212.46 -7.96, -255.18 -9.67" stroke="#1e1e1e" stroke-width="4" fill="none"></path></g><g transform="translate(813.9954123080533 1123.551203748234) rotate(0 -128.35882001070865 -5.187535755839406)"><path d="M-226.51 -20.19 C-238.02 -16.03, -245.82 -13.88, -256.93 -9.52 M-225.77 -18.91 C-236.25 -16.42, -244.83 -13.62, -255.9 -8.93" stroke="#1e1e1e" stroke-width="4" fill="none"></path></g><g transform="translate(813.9954123080533 1123.551203748234) rotate(0 -128.35882001070865 -5.187535755839406)"><path d="M-227.25 0.32 C-238.37 -3.01, -245.89 -8.36, -256.93 -9.52 M-226.51 1.6 C-236.92 -2.67, -245.25 -6.62, -255.9 -8.93" stroke="#1e1e1e" stroke-width="4" fill="none"></path></g></g><mask></mask><g transform="translate(628.6263518699877 1071.8690633003475) rotate(0 53.11994171142578 12.5)"><text x="0" y="0" font-family="Virgil, Segoe UI Emoji" font-size="20px" fill="#1e1e1e" text-anchor="start" style="white-space: pre;" direction="ltr" dominant-baseline="text-before-edge">1.2 Update</text></g><g transform="translate(648.2095550170146 1120.1469539062575) rotate(0 65.38992309570312 12.5)"><text x="0" y="0" font-family="Virgil, Segoe UI Emoji" font-size="20px" fill="#1e1e1e" text-anchor="start" style="white-space: pre;" direction="ltr" dominant-baseline="text-before-edge">2.3 Response</text></g><g stroke-linecap="round" transform="translate(1283.449885571596 215.3932403188116) rotate(0 100.18805594803587 93.5642531533571)"><path d="M-1.31 0.23 C80.04 -2.15, 157.42 0.58, 199.98 -0.68 M-0.49 0.39 C64.65 0.82, 130.44 1.1, 199.8 0.74 M200.75 1.61 C200.12 57.94, 196.88 111.55, 200.98 188.9 M201.18 0.95 C198.46 65.92, 199.11 133.8, 200.43 188.03 M202.02 187.44 C131.89 188.46, 66.44 188.22, -1.4 188.87 M201.27 186.29 C133.59 189.5, 66.42 189.38, 0.46 187.69 M-0.01 188.11 C0.13 138.47, -1.42 88, -0.75 -1.55 M-0.48 187.77 C-0.83 141.21, 0.66 95.59, -0.45 0.89" stroke="#2f9e44" stroke-width="4" fill="none"></path></g><g stroke-linecap="round"><g transform="translate(1284.3109870069031 264.9955225514429) rotate(0 97.00310855858663 -0.9142722316307186)"><path d="M-1.13 -1.1 C51.93 -2.48, 101.7 -2.3, 195.14 -2.75 M-0.87 0.19 C75.26 2.06, 149.62 -0.13, 194.22 -1.17" stroke="#2f9e44" stroke-width="4" fill="none"></path></g></g><mask></mask><g transform="translate(1333.8790100885403 230.3914309661488) rotate(0 25.869972229003906 12.5)"><text x="0" y="0" font-family="Virgil, Segoe UI Emoji" font-size="20px" fill="#2f9e44" text-anchor="start" style="white-space: pre;" direction="ltr" dominant-baseline="text-before-edge">Train</text></g><g stroke-linecap="round" transform="translate(2570.165853172275 146.36537181363963) rotate(0 79.01328562227582 111.27341139366384)"><path d="M-0.89 -1.79 C40.05 2.3, 82.69 -1.37, 156.88 -0.92 M0.71 0.26 C43.4 -0.38, 85.4 0.02, 157.39 0.32 M157.1 1.23 C156.68 49.1, 156.7 97.02, 156.44 220.94 M158.3 0.13 C156.27 60.4, 157.22 122.15, 157.97 222.86 M156.83 223.25 C113.8 222.17, 67.73 221.7, -1.22 223.24 M158.86 222.73 C99.66 223.86, 40.53 222.56, 0.17 221.68 M0.69 223.31 C-0.3 141.46, -1.63 57.7, 0.3 1.08 M0.13 221.87 C0.48 157.57, 0.43 91.61, -0.82 0.66" stroke="#2f9e44" stroke-width="4" fill="none"></path></g><g stroke-linecap="round"><g transform="translate(2570.0186322111167 189.9177196674824) rotate(0 77.53128759500032 0.19059156726734727)"><path d="M-1 1.84 C43.1 -0.55, 83.85 0.23, 156.06 -1.46 M0.69 -0.3 C47.83 -0.44, 95.09 -0.38, 155.87 -1.46" stroke="#2f9e44" stroke-width="4" fill="none"></path></g></g><mask></mask><g transform="translate(2623.6907275677395 160.42905887057043) rotate(0 22.33997344970703 12.5)"><text x="0" y="0" font-family="Virgil, Segoe UI Emoji" font-size="20px" fill="#2f9e44" text-anchor="start" style="white-space: pre;" direction="ltr" dominant-baseline="text-before-edge">User</text></g><g stroke-linecap="round" transform="translate(2525.4369675893204 612.489777576808) rotate(0 79.01328562227582 63.314581259414126)"><path d="M-1.75 0.56 C39.72 -0.63, 82.78 0.02, 156.53 1.1 M0.6 0.29 C31.57 0.89, 64.27 -0.73, 157.31 -0.95 M157.31 -0.26 C158.07 30.52, 156.99 62.75, 158.33 128.11 M157.83 0.44 C158.21 29.97, 159.24 60.07, 158.59 126.11 M158.9 127.81 C95.99 126.85, 33.13 125.42, -0.72 126.59 M158.29 125.71 C120.97 126.23, 83.8 125.22, 0.8 126.79 M-1.93 125.12 C0.44 90.35, -0.48 52.04, 1.54 -1.69 M0.99 125.7 C-1.83 93.33, -0.35 59.99, -0.65 -0.01" stroke="#2f9e44" stroke-width="4" fill="none"></path></g><g stroke-linecap="round"><g transform="translate(2525.289746628162 656.0421254306508) rotate(0 77.18743582379466 -0.6010213382542133)"><path d="M-1.77 -1.98 C33.47 -1.86, 65.83 0.46, 154.7 0.42 M-0.37 0.78 C46.26 -1.43, 91.04 -1.68, 156.14 0.22" stroke="#2f9e44" stroke-width="4" fill="none"></path></g></g><mask></mask><g transform="translate(2562.3774276175964 621.4380338453567) rotate(0 37.49995422363281 12.5)"><text x="0" y="0" font-family="Virgil, Segoe UI Emoji" font-size="20px" fill="#2f9e44" text-anchor="start" style="white-space: pre;" direction="ltr" dominant-baseline="text-before-edge">Classes</text></g><g stroke-linecap="round" transform="translate(2073.9695525293628 323.6243254047711) rotate(0 138.00014581546452 122.47698052327992)"><path d="M-1.13 -0.91 C93.04 0.26, 187.54 -0.31, 274.87 0.32 M-0.16 -0.15 C74.15 1.83, 148.53 2.26, 276.44 0.64 M275.23 0.45 C274.63 88.83, 275.87 174.95, 274.8 244.41 M276.07 -0.27 C275.3 84.29, 275.29 168.55, 275.65 244.66 M276.11 245.06 C191.82 246.87, 106.4 246.12, -0.47 244.2 M276.38 245.44 C166.53 246.55, 56.1 246.09, -0.41 245.33 M0.89 245.19 C0.72 178.83, 2.91 112.81, -0.35 -0.22 M0.21 244.34 C1.29 189.64, 1.08 133.44, 0.03 -0.79" stroke="#2f9e44" stroke-width="4" fill="none"></path></g><g stroke-linecap="round"><g transform="translate(2077.5887464450925 366.1683508621491) rotate(0 136.68780400174 -0.12908476760027554)"><path d="M-0.69 -0.76 C69.15 -0.2, 136.97 1.34, 273.14 -0.51 M-0.07 -0.09 C57.53 0.65, 115.34 0.86, 274.07 -0.49" stroke="#2f9e44" stroke-width="4" fill="none"></path></g></g><mask></mask><g transform="translate(2142.909454535541 332.5725816733198) rotate(0 31.239967346191406 12.5)"><text x="0" y="0" font-family="Virgil, Segoe UI Emoji" font-size="20px" fill="#2f9e44" text-anchor="start" style="white-space: pre;" direction="ltr" dominant-baseline="text-before-edge">Ticket</text></g><g stroke-linecap="round" transform="translate(1612.3477164316748 482.5183877449051) rotate(0 79.0132856222757 79.60528570266183)"><path d="M1.76 1.7 C57.18 0.64, 110.49 0.71, 159.06 0.88 M0.75 0.44 C47.35 -1.18, 94.81 -0.69, 157.83 -0.91 M159.4 1.17 C158.85 49.14, 159.4 96.24, 158.14 159.78 M158.49 -0.74 C159.55 44.09, 159.97 88.46, 158.85 159.14 M159.81 158.16 C122.98 158.84, 87.05 157.55, 2 160.21 M157.57 158.46 C102.59 158, 46.93 159.35, 0.03 159.45 M-0.11 158.6 C-2.25 119.67, -1.01 79.62, -0.75 -0.4 M0.32 159.49 C0.97 113.37, 1.34 67.3, 0.02 -0.77" stroke="#2f9e44" stroke-width="4" fill="none"></path></g><g stroke-linecap="round"><g transform="translate(1612.2004954705164 526.0707355987479) rotate(0 78.37373704400306 -0.38228852591720397)"><path d="M1.77 -0.09 C39.48 -1.46, 80.66 -0.68, 156.64 -0.7 M0.09 0.16 C60.53 -0.22, 120.32 -1.96, 156.66 -0.02" stroke="#2f9e44" stroke-width="4" fill="none"></path></g></g><mask></mask><g transform="translate(1665.8725908271379 496.5820748018359) rotate(0 36.44995880126953 12.5)"><text x="0" y="0" font-family="Virgil, Segoe UI Emoji" font-size="20px" fill="#2f9e44" text-anchor="start" style="white-space: pre;" direction="ltr" dominant-baseline="text-before-edge">Station</text></g><g transform="translate(2579.300143653638 199.67564636707766) rotate(0 35.5899658203125 12.5)"><text x="0" y="0" font-family="Virgil, Segoe UI Emoji" font-size="20px" fill="#2f9e44" text-anchor="start" style="white-space: pre;" direction="ltr" dominant-baseline="text-before-edge">UserID</text></g><g transform="translate(2579.300143653638 228.9598070329642) rotate(0 45.479949951171875 12.5)"><text x="0" y="0" font-family="Virgil, Segoe UI Emoji" font-size="20px" fill="#2f9e44" text-anchor="start" style="white-space: pre;" direction="ltr" dominant-baseline="text-before-edge">Username</text></g><g transform="translate(2578.585895832518 255.3869764143738) rotate(0 45.75994873046875 12.5)"><text x="0" y="0" font-family="Virgil, Segoe UI Emoji" font-size="20px" fill="#2f9e44" text-anchor="start" style="white-space: pre;" direction="ltr" dominant-baseline="text-before-edge">Password</text></g><g transform="translate(2579.300143653638 281.0998979746644) rotate(0 24.559967041015625 12.5)"><text x="0" y="0" font-family="Virgil, Segoe UI Emoji" font-size="20px" fill="#2f9e44" text-anchor="start" style="white-space: pre;" direction="ltr" dominant-baseline="text-before-edge">Email</text></g><g transform="translate(2578.585895832518 306.8128195349549) rotate(0 53.219940185546875 12.5)"><text x="0" y="0" font-family="Virgil, Segoe UI Emoji" font-size="20px" fill="#2f9e44" text-anchor="start" style="white-space: pre;" direction="ltr" dominant-baseline="text-before-edge">First Name</text></g><g transform="translate(2578.585895832518 332.52574109524545) rotate(0 53.649940490722656 12.5)"><text x="0" y="0" font-family="Virgil, Segoe UI Emoji" font-size="20px" fill="#2f9e44" text-anchor="start" style="white-space: pre;" direction="ltr" dominant-baseline="text-before-edge">Last Name</text></g><g transform="translate(1322.9913244154118 272.9501468694761) rotate(0 39.119964599609375 12.5)"><text x="0" y="0" font-family="Virgil, Segoe UI Emoji" font-size="20px" fill="#2f9e44" text-anchor="start" style="white-space: pre;" direction="ltr" dominant-baseline="text-before-edge">TrainID</text></g><g transform="translate(2152.331673223216 440.11666212700584) rotate(0 63.93992614746094 12.5)"><text x="0" y="0" font-family="Virgil, Segoe UI Emoji" font-size="20px" fill="#2f9e44" text-anchor="start" style="white-space: pre;" direction="ltr" dominant-baseline="text-before-edge">Travel Class</text></g><g transform="translate(2155.063842822002 376.63234785808527) rotate(0 49.489952087402344 12.5)"><text x="0" y="0" font-family="Virgil, Segoe UI Emoji" font-size="20px" fill="#2f9e44" text-anchor="start" style="white-space: pre;" direction="ltr" dominant-baseline="text-before-edge">Ticket ID</text></g><g transform="translate(2561.746317084917 658.7134203399199) rotate(0 39.84996032714844 12.5)"><text x="0" y="0" font-family="Virgil, Segoe UI Emoji" font-size="20px" fill="#2f9e44" text-anchor="start" style="white-space: pre;" direction="ltr" dominant-baseline="text-before-edge">ClassID</text></g><g transform="translate(2549.6464483273394 683.9214802515392) rotate(0 56.50993347167969 12.5)"><text x="0" y="0" font-family="Virgil, Segoe UI Emoji" font-size="20px" fill="#2f9e44" text-anchor="start" style="white-space: pre;" direction="ltr" dominant-baseline="text-before-edge">Class Name</text></g><g transform="translate(2536.538257173297 707.1128953702287) rotate(0 71.91991424560547 12.5)"><text x="0" y="0" font-family="Virgil, Segoe UI Emoji" font-size="20px" fill="#2f9e44" text-anchor="start" style="white-space: pre;" direction="ltr" dominant-baseline="text-before-edge">Price Multiplier</text></g><g transform="translate(1344.600890091346 299.77472033160194) rotate(0 20.739974975585938 12.5)"><text x="0" y="0" font-family="Virgil, Segoe UI Emoji" font-size="20px" fill="#2f9e44" text-anchor="start" style="white-space: pre;" direction="ltr" dominant-baseline="text-before-edge">type</text></g><g transform="translate(1341.1411275517776 335.46613545029163) rotate(0 24.90997314453125 12.5)"><text x="0" y="0" font-family="Virgil, Segoe UI Emoji" font-size="20px" fill="#2f9e44" text-anchor="start" style="white-space: pre;" direction="ltr" dominant-baseline="text-before-edge">Name</text></g><g transform="translate(1643.114301709829 536.6625337560131) rotate(0 49.699951171875 12.5)"><text x="0" y="0" font-family="Virgil, Segoe UI Emoji" font-size="20px" fill="#2f9e44" text-anchor="start" style="white-space: pre;" direction="ltr" dominant-baseline="text-before-edge">StationID</text></g><g transform="translate(1631.0577598395546 561.8705936676323) rotate(0 66.35992431640625 12.5)"><text x="0" y="0" font-family="Virgil, Segoe UI Emoji" font-size="20px" fill="#2f9e44" text-anchor="start" style="white-space: pre;" direction="ltr" dominant-baseline="text-before-edge">Station Name</text></g><g transform="translate(1672.3556512073071 592.1202655615753) rotate(0 18.96997833251953 12.5)"><text x="0" y="0" font-family="Virgil, Segoe UI Emoji" font-size="20px" fill="#2f9e44" text-anchor="start" style="white-space: pre;" direction="ltr" dominant-baseline="text-before-edge">City</text></g><g transform="translate(2183.8855497107343 503.0658535029957) rotate(0 23.869972229003906 12.5)"><text x="0" y="0" font-family="Virgil, Segoe UI Emoji" font-size="20px" fill="#2f9e44" text-anchor="start" style="white-space: pre;" direction="ltr" dominant-baseline="text-before-edge">Seat</text></g><g transform="translate(1305.849843675511 363.6991625513052) rotate(0 76.55990600585938 12.5)"><text x="0" y="0" font-family="Virgil, Segoe UI Emoji" font-size="20px" fill="#2f9e44" text-anchor="start" style="white-space: pre;" direction="ltr" dominant-baseline="text-before-edge">Seats Capacity</text></g><g transform="translate(2184.775519228354 534.1161495238539) rotate(0 23.58997344970703 12.5)"><text x="0" y="0" font-family="Virgil, Segoe UI Emoji" font-size="20px" fill="#2f9e44" text-anchor="start" style="white-space: pre;" direction="ltr" dominant-baseline="text-before-edge">Price</text></g><g stroke-linecap="round" transform="translate(1642.6813706556661 134.27837053358746) rotate(0 113.22419871933084 108.1544584781667)"><path d="M1.53 -1.63 C73.67 0.57, 148.47 -0.26, 225.04 -0.72 M-0.33 0.21 C73.72 1.4, 148.26 0.36, 226.72 0 M227.59 0.44 C226.11 73.77, 224.02 148.6, 226.41 214.94 M226.16 0.26 C224.66 77.51, 224.31 156.17, 227.2 216.91 M227.44 215.99 C151.14 217.9, 73.09 218.44, 1.47 214.64 M225.63 217.11 C144.99 215.78, 64.17 216.49, -0.56 215.72 M0.07 216.64 C-1.87 151.54, 0.32 88.5, -0.51 0.96 M-0.51 217.04 C1.11 134.9, 1.9 54.74, 0.66 -0.36" stroke="#2f9e44" stroke-width="4" fill="none"></path></g><g stroke-linecap="round"><g transform="translate(1646.1160436260454 177.15585433866556) rotate(0 110.22583699404845 -1.2045737053190635)"><path d="M-0.91 -1.6 C65.8 -0.41, 134.2 -0.3, 221.36 -2.07 M0.15 -0.34 C73.21 -1.89, 148.13 -1.87, 220.94 -0.77" stroke="#2f9e44" stroke-width="4" fill="none"></path></g></g><mask></mask><g transform="translate(1739.9507298672052 142.59170652619963) rotate(0 20.129974365234375 12.5)"><text x="0" y="0" font-family="Virgil, Segoe UI Emoji" font-size="20px" fill="#2f9e44" text-anchor="start" style="white-space: pre;" direction="ltr" dominant-baseline="text-before-edge">Ride</text></g><g transform="translate(1727.3904046238852 180.8707929820323) rotate(0 33.379966735839844 12.5)"><text x="0" y="0" font-family="Virgil, Segoe UI Emoji" font-size="20px" fill="#2f9e44" text-anchor="start" style="white-space: pre;" direction="ltr" dominant-baseline="text-before-edge">RideID</text></g><g transform="translate(1732.1752904308646 204.79522201692782) rotate(0 25.869972229003906 12.5)"><text x="0" y="0" font-family="Virgil, Segoe UI Emoji" font-size="20px" fill="#2f9e44" text-anchor="start" style="white-space: pre;" direction="ltr" dominant-baseline="text-before-edge">Train</text></g><g transform="translate(1671.167996391881 228.12154032595083) rotate(0 86.71990203857422 12.5)"><text x="0" y="0" font-family="Virgil, Segoe UI Emoji" font-size="20px" fill="#2f9e44" text-anchor="start" style="white-space: pre;" direction="ltr" dominant-baseline="text-before-edge">DepartureStation</text></g><g transform="translate(1689.7094288939245 250.84974790910167) rotate(0 68.32992553710938 12.5)"><text x="0" y="0" font-family="Virgil, Segoe UI Emoji" font-size="20px" fill="#2f9e44" text-anchor="start" style="white-space: pre;" direction="ltr" dominant-baseline="text-before-edge">ArrivalStation</text></g><g transform="translate(1680.1396572799667 274.77417694399696) rotate(0 80.85990905761719 12.5)"><text x="0" y="0" font-family="Virgil, Segoe UI Emoji" font-size="20px" fill="#2f9e44" text-anchor="start" style="white-space: pre;" direction="ltr" dominant-baseline="text-before-edge">Departure Date</text></g><g transform="translate(1691.5037610715422 301.68915960825433) rotate(0 62.469932556152344 12.5)"><text x="0" y="0" font-family="Virgil, Segoe UI Emoji" font-size="20px" fill="#2f9e44" text-anchor="start" style="white-space: pre;" direction="ltr" dominant-baseline="text-before-edge">Arrival Date</text></g><g transform="translate(2189.7830263496435 476.095606520909) rotate(0 20.129974365234375 12.5)"><text x="0" y="0" font-family="Virgil, Segoe UI Emoji" font-size="20px" fill="#2f9e44" text-anchor="start" style="white-space: pre;" direction="ltr" dominant-baseline="text-before-edge">Ride</text></g><g stroke-linecap="round"><g transform="translate(2557.0974296155327 197.28642779022402) rotate(0 -96.8920939849977 114.00274366926189)"><path d="M-0.65 0.49 C-55.81 65.91, -108.41 127.82, -193.25 228.22 M-0.12 -0.21 C-64.94 74.24, -128.52 150.58, -193.66 226.93" stroke="#2f9e44" stroke-width="4" fill="none"></path></g><g transform="translate(2557.0974296155327 197.28642779022402) rotate(0 -96.8920939849977 114.00274366926189)"><path d="M-184.13 199.47 C-187.52 208.76, -187.6 213.52, -193.74 228.62 M-183.41 198.52 C-187.35 207.25, -189.72 217.56, -194.3 226.88" stroke="#2f9e44" stroke-width="4" fill="none"></path></g><g transform="translate(2557.0974296155327 197.28642779022402) rotate(0 -96.8920939849977 114.00274366926189)"><path d="M-168.48 212.75 C-176.3 218.3, -180.81 219.3, -193.74 228.62 M-167.76 211.8 C-176.92 216.02, -184.5 221.9, -194.3 226.88" stroke="#2f9e44" stroke-width="4" fill="none"></path></g></g><mask></mask><g transform="translate(2185.8635597177918 408.8668087719026) rotate(0 22.33997344970703 12.5)"><text x="0" y="0" font-family="Virgil, Segoe UI Emoji" font-size="20px" fill="#2f9e44" text-anchor="start" style="white-space: pre;" direction="ltr" dominant-baseline="text-before-edge">User</text></g><g stroke-linecap="round"><g transform="translate(1879.1251482114606 145.31005414084154) rotate(0 91.34061512505923 164.17692987373115)"><path d="M0.64 0.29 C63.72 114.91, 125.64 231.57, 181.7 327.08 M0.07 0.6 C54.68 97.64, 108.32 194.56, 182.62 328.07" stroke="#2f9e44" stroke-width="4" fill="none"></path></g><g transform="translate(1879.1251482114606 145.31005414084154) rotate(0 91.34061512505923 164.17692987373115)"><path d="M161 308.89 C169.53 314.55, 173.98 323.94, 181.22 326.27 M160.06 309.41 C167.04 314.72, 173.43 320.81, 182.74 327.89" stroke="#2f9e44" stroke-width="4" fill="none"></path></g><g transform="translate(1879.1251482114606 145.31005414084154) rotate(0 91.34061512505923 164.17692987373115)"><path d="M178.93 298.91 C181.1 308.03, 179.26 320.93, 181.22 326.27 M177.99 299.44 C179.72 307.58, 180.83 316.61, 182.74 327.89" stroke="#2f9e44" stroke-width="4" fill="none"></path></g></g><mask></mask><g stroke-linecap="round"><g transform="translate(2550.37157016946 620.7871939761706) rotate(0 -92.37650589662826 -81.79739677896207)"><path d="M0.65 -0.33 C-63.28 -54.62, -126.07 -111.59, -185.41 -163.43 M-0.23 -0.04 C-47.81 -43.24, -93.81 -85, -183.62 -163.56" stroke="#2f9e44" stroke-width="4" fill="none"></path></g><g transform="translate(2550.37157016946 620.7871939761706) rotate(0 -92.37650589662826 -81.79739677896207)"><path d="M-154.88 -153.03 C-165.58 -155.26, -174.96 -160.27, -185.53 -163.7 M-155.96 -152.68 C-163.56 -155.72, -169.31 -158.36, -183.36 -163.86" stroke="#2f9e44" stroke-width="4" fill="none"></path></g><g transform="translate(2550.37157016946 620.7871939761706) rotate(0 -92.37650589662826 -81.79739677896207)"><path d="M-168.44 -137.63 C-174.51 -145.17, -179.24 -155.45, -185.53 -163.7 M-169.52 -137.28 C-173.64 -144.15, -175.92 -150.74, -183.36 -163.86" stroke="#2f9e44" stroke-width="4" fill="none"></path></g></g><mask></mask><g stroke-linecap="round"><g transform="translate(1495.5304591889808 243.36333686235315) rotate(0 67.2489247251691 -14.506081961524075)"><path d="M1.08 -1.74 C37.15 -5.75, 76.64 -15.92, 134.55 -28.38 M-0.05 -0.63 C45.39 -9.3, 92.29 -18.64, 133.01 -27.45" stroke="#2f9e44" stroke-width="4" fill="none"></path></g><g transform="translate(1495.5304591889808 243.36333686235315) rotate(0 67.2489247251691 -14.506081961524075)"><path d="M108.63 -13.33 C114.38 -14.17, 123.52 -21.17, 134.5 -28.73 M107.49 -12.22 C115.53 -17.82, 125.15 -23.27, 132.96 -27.8" stroke="#2f9e44" stroke-width="4" fill="none"></path></g><g transform="translate(1495.5304591889808 243.36333686235315) rotate(0 67.2489247251691 -14.506081961524075)"><path d="M104.39 -33.41 C111.43 -28.58, 121.76 -29.92, 134.5 -28.73 M103.26 -32.3 C112.57 -30.91, 123.65 -29.4, 132.96 -27.8" stroke="#2f9e44" stroke-width="4" fill="none"></path></g></g><mask></mask><g stroke-linecap="round"><g transform="translate(1695.389804173942 472.52145289934765) rotate(0 19.02506835265808 -56.37639660447044)"><path d="M-0.21 0.29 C9.13 -32.17, 21.89 -65.26, 38.26 -111.11 M0.7 -0.67 C10.66 -35.45, 23.35 -72.49, 38.12 -113.05" stroke="#2f9e44" stroke-width="4" fill="none"></path></g><g transform="translate(1695.389804173942 472.52145289934765) rotate(0 19.02506835265808 -56.37639660447044)"><path d="M38.09 -82.75 C36.68 -91.43, 38.59 -100.81, 38.96 -112.04 M39 -83.72 C37.19 -92.17, 37.82 -102.87, 38.82 -113.98" stroke="#2f9e44" stroke-width="4" fill="none"></path></g><g transform="translate(1695.389804173942 472.52145289934765) rotate(0 19.02506835265808 -56.37639660447044)"><path d="M18.76 -89.66 C22.94 -96.39, 30.43 -103.77, 38.96 -112.04 M19.67 -90.62 C24.08 -96.85, 30.91 -105.34, 38.82 -113.98" stroke="#2f9e44" stroke-width="4" fill="none"></path></g></g><mask></mask><g stroke-linecap="round" transform="translate(991.0863964581254 1196.0549968886949) rotate(0 450.48861542115674 186.81288666461893)"><path d="M0.28 0.46 C230.04 1.12, 460.59 1.26, 900.79 -0.4 M901.88 0.88 C900.57 107.66, 899.77 212.69, 901.6 372.81 M901.71 373.1 C613.27 373.19, 325.55 372.92, 0.67 374.37 M-0.88 373.98 C-1.51 255.7, -0.55 139.77, 0.46 0.36" stroke="#e03131" stroke-width="2.5" fill="none" stroke-dasharray="8 10"></path></g><g transform="translate(1033.4042826896878 1236.4113431444885) rotate(0 214.76974487304688 25)"><text x="0" y="0" font-family="Virgil, Segoe UI Emoji" font-size="20px" fill="#e03131" text-anchor="start" style="white-space: pre;" direction="ltr" dominant-baseline="text-before-edge">GET: Read available trains for input filter</text><text x="0" y="25" font-family="Virgil, Segoe UI Emoji" font-size="20px" fill="#e03131" text-anchor="start" style="white-space: pre;" direction="ltr" dominant-baseline="text-before-edge">      Auth</text></g><g transform="translate(1035.598067011496 1306.6124414423443) rotate(0 103.2598876953125 25)"><text x="0" y="0" font-family="Virgil, Segoe UI Emoji" font-size="20px" fill="#e03131" text-anchor="start" style="white-space: pre;" direction="ltr" dominant-baseline="text-before-edge">POST: Create ticket</text><text x="0" y="25" font-family="Virgil, Segoe UI Emoji" font-size="20px" fill="#e03131" text-anchor="start" style="white-space: pre;" direction="ltr" dominant-baseline="text-before-edge">               User</text></g><g transform="translate(1044.3732042987278 1393.2669221537603) rotate(0 29.20996856689453 12.5)"><text x="0" y="0" font-family="Virgil, Segoe UI Emoji" font-size="20px" fill="#e03131" text-anchor="start" style="white-space: pre;" direction="ltr" dominant-baseline="text-before-edge">PUT: </text></g><g transform="translate(1034.5011748505917 1467.8555890952325) rotate(0 115.80987548828125 12.5)"><text x="0" y="0" font-family="Virgil, Segoe UI Emoji" font-size="20px" fill="#e03131" text-anchor="start" style="white-space: pre;" direction="ltr" dominant-baseline="text-before-edge">DELETE: Delete ticket</text></g><g transform="translate(1638.3747613691 614.440232929712) rotate(0 56.93994140625 12.5)"><text x="0" y="0" font-family="Virgil, Segoe UI Emoji" font-size="20px" fill="#2f9e44" text-anchor="start" style="white-space: pre;" direction="ltr" dominant-baseline="text-before-edge">Department</text></g></svg>